%TF.GenerationSoftware,KiCad,Pcbnew,4.0.2-stable*%
%TF.CreationDate,2018-01-13T17:53:33+11:00*%
%TF.ProjectId,60,36302E6B696361645F70636200000000,rev?*%
%TF.FileFunction,Paste,Bot*%
%FSLAX46Y46*%
G04 Gerber Fmt 4.6, Leading zero omitted, Abs format (unit mm)*
G04 Created by KiCad (PCBNEW 4.0.2-stable) date 13/01/2018 5:53:33 PM*
%MOMM*%
G01*
G04 APERTURE LIST*
%ADD10C,0.100000*%
%ADD11C,3.000000*%
%ADD12R,1.000000X1.000000*%
%ADD13R,1.250000X1.500000*%
%ADD14R,1.500000X1.250000*%
%ADD15R,1.900000X0.800000*%
%ADD16R,1.500000X1.300000*%
%ADD17R,2.000000X0.800000*%
%ADD18R,0.550000X1.500000*%
%ADD19R,1.500000X0.550000*%
%ADD20R,2.350000X0.800000*%
%ADD21R,0.500000X1.400000*%
%ADD22O,1.500000X4.000000*%
%ADD23R,1.000000X1.700000*%
G04 APERTURE END LIST*
D10*
D11*
X213200000Y-58750000D03*
X234800000Y-58750000D03*
D12*
X40481250Y-47693750D03*
X40481250Y-45193750D03*
D13*
X35750000Y-66750000D03*
X35750000Y-69250000D03*
D14*
X32450000Y-55500000D03*
X29950000Y-55500000D03*
D13*
X42800000Y-48350000D03*
X42800000Y-45850000D03*
D10*
G36*
X50227729Y-56556155D02*
X49343845Y-55672271D01*
X50404505Y-54611611D01*
X51288389Y-55495495D01*
X50227729Y-56556155D01*
X50227729Y-56556155D01*
G37*
G36*
X51995495Y-54788389D02*
X51111611Y-53904505D01*
X52172271Y-52843845D01*
X53056155Y-53727729D01*
X51995495Y-54788389D01*
X51995495Y-54788389D01*
G37*
D14*
X63750000Y-47200000D03*
X61250000Y-47200000D03*
D15*
X63500000Y-49000000D03*
X63500000Y-50900000D03*
X60500000Y-49950000D03*
D16*
X31987500Y-78581250D03*
X34687500Y-78581250D03*
X58150000Y-49500000D03*
X55450000Y-49500000D03*
X55450000Y-51500000D03*
X58150000Y-51500000D03*
D17*
X23750000Y-61740000D03*
X23750000Y-60470000D03*
X23750000Y-59200000D03*
X23750000Y-57930000D03*
X23750000Y-56660000D03*
X23750000Y-55390000D03*
X23750000Y-54120000D03*
X23750000Y-52850000D03*
D15*
X63500000Y-43500000D03*
X63500000Y-45400000D03*
X60500000Y-44450000D03*
D18*
X45750000Y-62950000D03*
X44950000Y-62950000D03*
X44150000Y-62950000D03*
X43350000Y-62950000D03*
X42550000Y-62950000D03*
X41750000Y-62950000D03*
X40950000Y-62950000D03*
X40150000Y-62950000D03*
X39350000Y-62950000D03*
X38550000Y-62950000D03*
X37750000Y-62950000D03*
D19*
X36050000Y-61250000D03*
X36050000Y-60450000D03*
X36050000Y-59650000D03*
X36050000Y-58850000D03*
X36050000Y-58050000D03*
X36050000Y-57250000D03*
X36050000Y-56450000D03*
X36050000Y-55650000D03*
X36050000Y-54850000D03*
X36050000Y-54050000D03*
X36050000Y-53250000D03*
D18*
X37750000Y-51550000D03*
X38550000Y-51550000D03*
X39350000Y-51550000D03*
X40150000Y-51550000D03*
X40950000Y-51550000D03*
X41750000Y-51550000D03*
X42550000Y-51550000D03*
X43350000Y-51550000D03*
X44150000Y-51550000D03*
X44950000Y-51550000D03*
X45750000Y-51550000D03*
D19*
X47450000Y-53250000D03*
X47450000Y-54050000D03*
X47450000Y-54850000D03*
X47450000Y-55650000D03*
X47450000Y-56450000D03*
X47450000Y-57250000D03*
X47450000Y-58050000D03*
X47450000Y-58850000D03*
X47450000Y-59650000D03*
X47450000Y-60450000D03*
X47450000Y-61250000D03*
D12*
X288131250Y-126275000D03*
X288131250Y-123775000D03*
X265000000Y-126200000D03*
X265000000Y-123700000D03*
X269081250Y-126275000D03*
X269081250Y-123775000D03*
X216693750Y-126275000D03*
X216693750Y-123775000D03*
X214312500Y-126275000D03*
X214312500Y-123775000D03*
X157162500Y-126275000D03*
X157162500Y-123775000D03*
X76200000Y-126275000D03*
X76200000Y-123775000D03*
X52387500Y-126275000D03*
X52387500Y-123775000D03*
X28575000Y-126275000D03*
X28575000Y-123775000D03*
X288131250Y-107225000D03*
X288131250Y-104725000D03*
X219075000Y-107225000D03*
X219075000Y-104725000D03*
X221456250Y-107225000D03*
X221456250Y-104725000D03*
X216693750Y-107225000D03*
X216693750Y-104725000D03*
X200025000Y-107225000D03*
X200025000Y-104725000D03*
X180975000Y-107225000D03*
X180975000Y-104725000D03*
X161925000Y-107225000D03*
X161925000Y-104725000D03*
X142875000Y-107225000D03*
X142875000Y-104725000D03*
X123825000Y-107225000D03*
X123825000Y-104725000D03*
X104775000Y-107225000D03*
X104775000Y-104725000D03*
X85725000Y-107225000D03*
X85725000Y-104725000D03*
X66675000Y-107225000D03*
X66675000Y-104725000D03*
X47625000Y-107225000D03*
X47625000Y-104725000D03*
X9525000Y-107225000D03*
X9525000Y-104725000D03*
X247650000Y-88175000D03*
X247650000Y-85675000D03*
X250031250Y-88175000D03*
X250031250Y-85675000D03*
X245268750Y-88175000D03*
X245268750Y-85675000D03*
X228600000Y-88175000D03*
X228600000Y-85675000D03*
X209550000Y-88175000D03*
X209550000Y-85675000D03*
X190500000Y-88175000D03*
X190500000Y-85675000D03*
X171450000Y-88175000D03*
X171450000Y-85675000D03*
X152400000Y-88175000D03*
X152400000Y-85675000D03*
X116681250Y-88175000D03*
X116681250Y-85675000D03*
X111918750Y-88175000D03*
X111918750Y-85675000D03*
X95250000Y-88175000D03*
X95250000Y-85675000D03*
X76200000Y-88175000D03*
X76200000Y-85675000D03*
X57150000Y-88175000D03*
X57150000Y-85675000D03*
X28575000Y-88175000D03*
X28575000Y-85675000D03*
X259556250Y-69125000D03*
X259556250Y-66625000D03*
X245268750Y-69125000D03*
X245268750Y-66625000D03*
X242887500Y-69125000D03*
X242887500Y-66625000D03*
X204787500Y-69125000D03*
X204787500Y-66625000D03*
X202406250Y-69125000D03*
X202406250Y-66625000D03*
X185737500Y-69125000D03*
X185737500Y-66625000D03*
X166687500Y-69125000D03*
X166687500Y-66625000D03*
X147637500Y-69125000D03*
X147637500Y-66625000D03*
X128587500Y-69125000D03*
X128587500Y-66625000D03*
X109537500Y-69125000D03*
X109537500Y-66625000D03*
X90487500Y-69125000D03*
X90487500Y-66625000D03*
X71437500Y-69125000D03*
X71437500Y-66625000D03*
X52387500Y-69125000D03*
X52387500Y-66625000D03*
X28500000Y-74500000D03*
X28500000Y-72000000D03*
X252412500Y-50075000D03*
X252412500Y-47575000D03*
X254793750Y-50075000D03*
X254793750Y-47575000D03*
X250031250Y-50075000D03*
X250031250Y-47575000D03*
X235743750Y-50075000D03*
X235743750Y-47575000D03*
X197643750Y-50075000D03*
X197643750Y-47575000D03*
X192881250Y-50075000D03*
X192881250Y-47575000D03*
X176212500Y-50075000D03*
X176212500Y-47575000D03*
X157162500Y-50075000D03*
X157162500Y-47575000D03*
X138112500Y-50075000D03*
X138112500Y-47575000D03*
X119062500Y-50075000D03*
X119062500Y-47575000D03*
X100012500Y-50075000D03*
X100012500Y-47575000D03*
X80962500Y-50075000D03*
X80962500Y-47575000D03*
X45243750Y-47693750D03*
X45243750Y-45193750D03*
X19500000Y-50000000D03*
X17000000Y-50000000D03*
X111918750Y-126275000D03*
X111918750Y-123775000D03*
X159543750Y-126275000D03*
X159543750Y-123775000D03*
D20*
X26425000Y-39750000D03*
X21075000Y-39750000D03*
D21*
X22150000Y-44950000D03*
X22950000Y-44950000D03*
X23750000Y-44950000D03*
X24550000Y-44950000D03*
X25350000Y-44950000D03*
D22*
X20100000Y-42550000D03*
X27400000Y-42550000D03*
D23*
X31437500Y-82575000D03*
X31437500Y-88875000D03*
X35237500Y-82575000D03*
X35237500Y-88875000D03*
D14*
X37750000Y-90000000D03*
X40250000Y-90000000D03*
M02*
