M48
;DRILL file {KiCad 4.0.2-stable} date 13/01/2018 7:03:31 PM
;FORMAT={-:-/ absolute / inch / decimal}
FMAT,2
INCH,TZ
T1C0.067
T2C0.120
T3C0.157
%
G90
G05
M72
T1
X0.3625Y-1.875
X0.4562Y-3.375
X0.4562Y-4.125
X0.4562Y-4.875
X0.55Y-2.625
X0.55Y-4.875
X0.6437Y-3.375
X0.7625Y-1.875
X0.8312Y-4.125
X0.8562Y-3.375
X0.8562Y-4.125
X0.8562Y-4.875
X0.95Y-2.625
X0.95Y-4.875
X1.0437Y-3.375
X1.1125Y-1.875
X1.2312Y-4.125
X1.3Y-4.125
X1.3938Y-4.875
X1.4875Y-2.625
X1.4875Y-4.875
X1.5125Y-1.875
X1.675Y-3.375
X1.7Y-4.125
X1.7937Y-4.875
X1.8625Y-1.875
X1.8875Y-2.625
X1.8875Y-4.875
X2.05Y-4.125
X2.075Y-3.375
X2.2375Y-2.625
X2.2625Y-1.875
X2.3312Y-4.875
X2.425Y-3.375
X2.425Y-4.875
X2.45Y-4.125
X2.6125Y-1.875
X2.6375Y-2.625
X2.7312Y-4.875
X2.8Y-4.125
X2.825Y-3.375
X2.825Y-4.875
X2.9875Y-2.625
X3.0125Y-1.875
X3.175Y-3.375
X3.2Y-4.125
X3.3625Y-1.875
X3.3875Y-2.625
X3.55Y-4.125
X3.575Y-3.375
X3.6437Y-4.875
X3.7375Y-2.625
X3.7625Y-1.875
X3.8312Y-4.875
X3.8312Y-4.875
X3.925Y-3.375
X3.95Y-4.125
X4.0438Y-4.875
X4.1125Y-1.875
X4.1375Y-2.625
X4.2313Y-4.875
X4.2313Y-4.875
X4.3Y-4.125
X4.325Y-3.375
X4.4875Y-2.625
X4.5125Y-1.875
X4.675Y-3.375
X4.7Y-4.125
X4.8625Y-1.875
X4.8875Y-2.625
X4.9562Y-4.875
X5.05Y-4.125
X5.075Y-3.375
X5.1437Y-4.875
X5.2375Y-2.625
X5.2625Y-1.875
X5.3312Y-4.875
X5.3563Y-4.875
X5.425Y-3.375
X5.425Y-4.875
X5.45Y-4.125
X5.5438Y-4.875
X5.6125Y-1.875
X5.6125Y-4.875
X5.6375Y-2.625
X5.7313Y-4.875
X5.8Y-4.125
X5.825Y-3.375
X5.825Y-4.875
X5.9875Y-2.625
X6.0125Y-1.875
X6.0125Y-4.875
X6.175Y-3.375
X6.2Y-4.125
X6.3625Y-1.875
X6.3875Y-2.625
X6.4562Y-4.875
X6.55Y-4.125
X6.575Y-3.375
X6.6437Y-4.875
X6.7375Y-2.625
X6.7625Y-1.875
X6.8563Y-4.875
X6.925Y-3.375
X6.95Y-4.125
X7.0438Y-4.875
X7.1125Y-1.875
X7.1375Y-2.625
X7.2062Y-4.875
X7.3Y-4.125
X7.325Y-3.375
X7.4875Y-2.625
X7.5125Y-1.875
X7.6063Y-4.875
X7.675Y-3.375
X7.7Y-4.125
X7.8625Y-1.875
X7.8625Y-4.875
X7.8875Y-2.625
X7.9562Y-4.875
X8.05Y-4.125
X8.075Y-3.375
X8.2375Y-2.625
X8.2625Y-1.875
X8.2625Y-4.875
X8.3562Y-4.875
X8.425Y-3.375
X8.45Y-4.125
X8.6125Y-1.875
X8.6125Y-4.875
X8.6375Y-2.625
X8.8Y-4.125
X8.8Y-4.875
X8.825Y-3.375
X8.8937Y-4.875
X8.9875Y-2.625
X9.0125Y-1.875
X9.0125Y-4.875
X9.0812Y-4.125
X9.175Y-3.375
X9.2Y-4.125
X9.2Y-4.875
X9.2937Y-4.875
X9.3625Y-1.875
X9.3625Y-4.875
X9.3875Y-2.625
X9.4812Y-4.125
X9.55Y-4.125
X9.575Y-3.375
X9.7375Y-2.625
X9.7375Y-4.875
X9.7625Y-1.875
X9.7625Y-4.875
X9.8312Y-4.125
X9.8312Y-4.875
X9.925Y-3.375
X9.95Y-4.125
X10.1125Y-1.875
X10.1125Y-4.125
X10.1125Y-4.875
X10.1375Y-2.625
X10.1375Y-4.875
X10.2062Y-4.125
X10.2312Y-4.125
X10.2312Y-4.875
X10.325Y-3.375
X10.3937Y-3.375
X10.4875Y-1.875
X10.5125Y-1.875
X10.5125Y-4.125
X10.5125Y-4.875
X10.5812Y-4.125
X10.6062Y-4.125
X10.675Y-2.625
X10.675Y-4.875
X10.7687Y-4.875
X10.7937Y-3.375
X10.8625Y-1.875
X10.8625Y-4.125
X10.8625Y-4.125
X10.8625Y-4.875
X10.8875Y-1.875
X10.9688Y-2.8
X10.9688Y-3.2
X10.9812Y-4.125
X11.075Y-2.625
X11.075Y-4.875
X11.1687Y-4.875
X11.2625Y-1.875
X11.2625Y-4.125
X11.2625Y-4.125
X11.2625Y-4.875
T2
X0.5625Y-3.85
X1.5Y-3.85
X3.375Y-5.15
X3.3752Y-5.15
X3.5625Y-5.15
X3.5625Y-5.15
X3.5625Y-5.15
X4.3125Y-5.15
X4.5Y-5.15
X4.5Y-5.15
X5.1562Y-5.15
X6.0938Y-5.15
X6.1875Y-5.15
X6.375Y-5.15
X6.9375Y-5.15
X7.125Y-5.15
X7.3122Y-5.15
X7.3125Y-5.15
X7.875Y-5.15
X8.0625Y-5.15
X9.9375Y-3.85
X10.125Y-3.1
X10.2188Y-1.6
X10.875Y-3.85
X11.0625Y-3.1
X11.1562Y-1.6
X11.2438Y-2.5312
X11.2438Y-3.4688
T3
X0.5625Y-1.875
X0.5625Y-4.45
X0.6562Y-3.375
X0.6562Y-4.125
X0.6562Y-4.875
X0.75Y-2.625
X0.75Y-4.875
X0.8438Y-3.375
X1.0312Y-4.125
X1.3125Y-1.875
X1.5Y-4.125
X1.5Y-4.45
X1.5938Y-4.875
X1.6875Y-2.625
X1.6875Y-4.875
X1.875Y-3.375
X2.0625Y-1.875
X2.25Y-4.125
X2.4375Y-2.625
X2.5312Y-4.875
X2.625Y-3.375
X2.625Y-4.875
X2.8125Y-1.875
X3.Y-4.125
X3.1875Y-2.625
X3.375Y-3.375
X3.375Y-4.55
X3.3752Y-4.55
X3.5625Y-1.875
X3.5625Y-4.55
X3.5625Y-4.55
X3.5625Y-4.55
X3.75Y-4.125
X3.8438Y-4.875
X3.9375Y-2.625
X4.0312Y-4.875
X4.0312Y-4.875
X4.125Y-3.375
X4.3125Y-1.875
X4.3125Y-4.55
X4.5Y-4.125
X4.5Y-4.55
X4.5Y-4.55
X4.6875Y-2.625
X4.875Y-3.375
X5.0625Y-1.875
X5.1562Y-4.55
X5.1562Y-4.875
X5.25Y-4.125
X5.3438Y-4.875
X5.4375Y-2.625
X5.5312Y-4.875
X5.625Y-3.375
X5.625Y-4.875
X5.8125Y-1.875
X5.8125Y-4.875
X6.Y-4.125
X6.0938Y-4.55
X6.1875Y-2.625
X6.1875Y-4.55
X6.375Y-3.375
X6.375Y-4.55
X6.5625Y-1.875
X6.6562Y-4.875
X6.75Y-4.125
X6.8438Y-4.875
X6.9375Y-2.625
X6.9375Y-4.55
X7.125Y-3.375
X7.125Y-4.55
X7.3122Y-4.55
X7.3125Y-1.875
X7.3125Y-4.55
X7.4062Y-4.875
X7.5Y-4.125
X7.6875Y-2.625
X7.875Y-3.375
X7.875Y-4.55
X8.0625Y-1.875
X8.0625Y-4.55
X8.0625Y-4.875
X8.1562Y-4.875
X8.25Y-4.125
X8.4375Y-2.625
X8.625Y-3.375
X8.8125Y-1.875
X8.8125Y-4.875
X9.Y-4.125
X9.Y-4.875
X9.0938Y-4.875
X9.1875Y-2.625
X9.2812Y-4.125
X9.375Y-3.375
X9.5625Y-1.875
X9.5625Y-4.875
X9.75Y-4.125
X9.9375Y-2.625
X9.9375Y-4.45
X9.9375Y-4.875
X10.0312Y-4.125
X10.0312Y-4.875
X10.125Y-3.375
X10.125Y-3.7
X10.2188Y-2.2
X10.3125Y-1.875
X10.3125Y-4.125
X10.3125Y-4.875
X10.4062Y-4.125
X10.5938Y-3.375
X10.6437Y-2.5312
X10.6437Y-3.4688
X10.6875Y-1.875
X10.7812Y-4.125
X10.875Y-2.625
X10.875Y-4.45
X10.875Y-4.875
X10.9688Y-3.
X10.9688Y-4.875
X11.0625Y-1.875
X11.0625Y-3.7
X11.0625Y-4.125
X11.0625Y-4.125
X11.0625Y-4.875
X11.1562Y-2.2
T0
M30
