M48
;DRILL file {KiCad 4.0.2-stable} date 14/01/2018 4:25:31 PM
;FORMAT={-:-/ absolute / inch / decimal}
FMAT,2
INCH,TZ
T1C0.016
T2C0.028
T3C0.039
T4C0.058
T5C0.079
T6C0.098
T7C0.098
%
G90
G05
M72
T1
X0.8169Y-1.937
X0.9055Y-1.9665
X0.9154Y-1.9291
X0.9744Y-2.5689
X1.Y-2.2402
X1.Y-2.3425
X1.0039Y-1.6831
X1.0039Y-2.185
X1.0067Y-2.0701
X1.0433Y-1.9291
X1.0925Y-2.0768
X1.1516Y-1.565
X1.1811Y-3.4744
X1.2795Y-2.0276
X1.2992Y-2.0965
X1.3189Y-2.126
X1.3386Y-2.1555
X1.3386Y-2.3819
X1.3484Y-2.2835
X1.3484Y-2.9626
X1.3484Y-3.002
X1.3858Y-3.0354
X1.4173Y-2.9331
X1.4272Y-3.061
X1.4488Y-3.0984
X1.4567Y-2.6732
X1.4862Y-2.687
X1.5256Y-1.9291
X1.5256Y-2.0866
X1.5433Y-2.2559
X1.5551Y-2.1161
X1.6142Y-2.4213
X1.6535Y-2.185
X1.6535Y-2.2559
X1.7402Y-2.185
X1.752Y-2.874
X1.7717Y-3.5039
X1.9291Y-2.1142
X1.9587Y-2.0374
X1.9587Y-4.1437
X1.9882Y-4.9409
X2.313Y-1.6122
X2.3228Y-1.7795
X2.3228Y-1.8878
X2.372Y-2.3228
X2.3819Y-2.0177
X2.5492Y-1.6122
X8.563Y-2.2146
X9.0748Y-2.2146
T3
X8.1496Y-2.2441
X8.2496Y-2.2441
T4
X0.4125Y-1.775
X0.4641Y-1.7175
X0.5062Y-3.275
X0.5062Y-4.025
X0.5062Y-4.775
X0.5578Y-3.2175
X0.5578Y-3.9675
X0.5578Y-4.7175
X0.6Y-4.775
X0.65Y-2.825
X0.6516Y-2.8022
X0.6516Y-4.7175
X0.6609Y-1.6978
X0.6625Y-1.675
X0.6937Y-3.275
X0.7453Y-3.2175
X0.7547Y-3.1978
X0.7547Y-3.9478
X0.7547Y-4.6978
X0.7562Y-3.175
X0.7562Y-3.925
X0.7562Y-4.675
X0.8484Y-2.7825
X0.8484Y-4.6978
X0.85Y-4.675
X0.8812Y-4.025
X0.9Y-2.725
X0.9328Y-3.9675
X0.9422Y-3.1978
X0.9437Y-3.175
X1.1297Y-3.9478
X1.1312Y-3.925
X1.1625Y-1.775
X1.2141Y-1.7175
X1.35Y-4.025
X1.4016Y-3.9675
X1.4109Y-1.6978
X1.4125Y-1.675
X1.4437Y-4.775
X1.4953Y-4.7175
X1.5375Y-4.775
X1.5875Y-2.825
X1.5891Y-2.8022
X1.5891Y-4.7175
X1.5984Y-3.9478
X1.6Y-3.925
X1.6922Y-4.6978
X1.6937Y-4.675
X1.725Y-3.275
X1.7766Y-3.2175
X1.7859Y-2.7825
X1.7859Y-4.6978
X1.7875Y-4.675
X1.8375Y-2.725
X1.9125Y-1.775
X1.9641Y-1.7175
X1.9734Y-3.1978
X1.975Y-3.175
X2.1Y-4.025
X2.1516Y-3.9675
X2.1609Y-1.6978
X2.1625Y-1.675
X2.2875Y-2.525
X2.3391Y-2.4675
X2.3484Y-3.9478
X2.35Y-3.925
X2.3813Y-4.775
X2.4328Y-4.7175
X2.475Y-3.275
X2.475Y-4.775
X2.5266Y-3.2175
X2.5266Y-4.7175
X2.5359Y-2.4478
X2.5375Y-2.425
X2.6297Y-4.6978
X2.6313Y-4.675
X2.6625Y-1.775
X2.7141Y-1.7175
X2.7234Y-3.1978
X2.7234Y-4.6978
X2.725Y-3.175
X2.725Y-4.675
X2.85Y-4.025
X2.9016Y-3.9675
X2.9109Y-1.6978
X2.9125Y-1.675
X3.0375Y-2.525
X3.0891Y-2.4675
X3.0984Y-3.9478
X3.1Y-3.925
X3.225Y-3.275
X3.2766Y-3.2175
X3.2859Y-2.4478
X3.2875Y-2.425
X3.4125Y-1.775
X3.4641Y-1.7175
X3.4734Y-3.1978
X3.475Y-3.175
X3.6Y-4.025
X3.6516Y-3.9675
X3.6609Y-1.6978
X3.6625Y-1.675
X3.6938Y-4.775
X3.7453Y-4.7175
X3.7875Y-2.525
X3.8391Y-2.4675
X3.8484Y-3.9478
X3.85Y-3.925
X3.8813Y-4.775
X3.8813Y-4.775
X3.9328Y-4.7175
X3.9328Y-4.7175
X3.9422Y-4.6978
X3.9438Y-4.675
X3.975Y-3.275
X4.0266Y-3.2175
X4.0359Y-2.4478
X4.0375Y-2.425
X4.1297Y-4.6978
X4.1297Y-4.6978
X4.1312Y-4.675
X4.1312Y-4.675
X4.1625Y-1.775
X4.2141Y-1.7175
X4.2234Y-3.1978
X4.225Y-3.175
X4.35Y-4.025
X4.4016Y-3.9675
X4.4109Y-1.6978
X4.4125Y-1.675
X4.5375Y-2.525
X4.5891Y-2.4675
X4.5984Y-3.9478
X4.6Y-3.925
X4.725Y-3.275
X4.7766Y-3.2175
X4.7859Y-2.4478
X4.7875Y-2.425
X4.9125Y-1.775
X4.9641Y-1.7175
X4.9734Y-3.1978
X4.975Y-3.175
X5.0062Y-4.775
X5.0578Y-4.7175
X5.1Y-4.025
X5.1516Y-3.9675
X5.1609Y-1.6978
X5.1625Y-1.675
X5.1937Y-4.775
X5.2453Y-4.7175
X5.2547Y-4.6978
X5.2562Y-4.675
X5.2875Y-2.525
X5.3391Y-2.4675
X5.3484Y-3.9478
X5.35Y-3.925
X5.3812Y-4.775
X5.4328Y-4.7175
X5.4422Y-4.6978
X5.4437Y-4.675
X5.475Y-3.275
X5.475Y-4.775
X5.5266Y-3.2175
X5.5266Y-4.7175
X5.5359Y-2.4478
X5.5375Y-2.425
X5.6297Y-4.6978
X5.6312Y-4.675
X5.6625Y-1.775
X5.6625Y-4.775
X5.7141Y-1.7175
X5.7141Y-4.7175
X5.7234Y-3.1978
X5.7234Y-4.6978
X5.725Y-3.175
X5.725Y-4.675
X5.85Y-4.025
X5.9016Y-3.9675
X5.9109Y-1.6978
X5.9109Y-4.6978
X5.9125Y-1.675
X5.9125Y-4.675
X6.0375Y-2.525
X6.0891Y-2.4675
X6.0984Y-3.9478
X6.1Y-3.925
X6.225Y-3.275
X6.2766Y-3.2175
X6.2859Y-2.4478
X6.2875Y-2.425
X6.4125Y-1.775
X6.4641Y-1.7175
X6.4734Y-3.1978
X6.475Y-3.175
X6.5062Y-4.775
X6.5578Y-4.7175
X6.6Y-4.025
X6.6516Y-3.9675
X6.6609Y-1.6978
X6.6625Y-1.675
X6.6937Y-4.775
X6.7453Y-4.7175
X6.7547Y-4.6978
X6.7562Y-4.675
X6.7875Y-2.525
X6.8391Y-2.4675
X6.8484Y-3.9478
X6.85Y-3.925
X6.9422Y-4.6978
X6.9437Y-4.675
X6.975Y-3.275
X7.0266Y-3.2175
X7.0359Y-2.4478
X7.0375Y-2.425
X7.1625Y-1.775
X7.2141Y-1.7175
X7.2234Y-3.1978
X7.225Y-3.175
X7.2562Y-4.775
X7.3078Y-4.7175
X7.35Y-4.025
X7.4016Y-3.9675
X7.4109Y-1.6978
X7.4125Y-1.675
X7.5047Y-4.6978
X7.5062Y-4.675
X7.5375Y-2.525
X7.5891Y-2.4675
X7.5984Y-3.9478
X7.6Y-3.925
X7.725Y-3.275
X7.7766Y-3.2175
X7.7859Y-2.4478
X7.7875Y-2.425
X7.9125Y-1.775
X7.9125Y-4.775
X7.9641Y-1.7175
X7.9641Y-4.7175
X7.9734Y-3.1978
X7.975Y-3.175
X8.0062Y-4.775
X8.0578Y-4.7175
X8.1Y-4.025
X8.1516Y-3.9675
X8.1609Y-1.6978
X8.1609Y-4.6978
X8.1625Y-1.675
X8.1625Y-4.675
X8.2547Y-4.6978
X8.2562Y-4.675
X8.3375Y-2.825
X8.3391Y-2.8022
X8.3484Y-3.9478
X8.35Y-3.925
X8.475Y-3.275
X8.5266Y-3.2175
X8.5359Y-2.7825
X8.5875Y-2.725
X8.6625Y-1.775
X8.6625Y-4.775
X8.7141Y-1.7175
X8.7141Y-4.7175
X8.7234Y-3.1978
X8.725Y-3.175
X8.85Y-4.025
X8.85Y-4.775
X8.9016Y-3.9675
X8.9016Y-4.7175
X8.9109Y-1.6978
X8.9109Y-4.6978
X8.9125Y-1.675
X8.9125Y-4.675
X8.9437Y-4.775
X8.9953Y-4.7175
X9.0875Y-2.825
X9.0891Y-2.8022
X9.0984Y-3.9478
X9.0984Y-4.6978
X9.1Y-3.925
X9.1Y-4.675
X9.1312Y-4.025
X9.1828Y-3.9675
X9.1922Y-4.6978
X9.1937Y-4.675
X9.225Y-3.275
X9.2766Y-3.2175
X9.2859Y-2.7825
X9.3375Y-2.725
X9.3797Y-3.9478
X9.3812Y-3.925
X9.4125Y-1.775
X9.4125Y-4.775
X9.4641Y-1.7175
X9.4641Y-4.7175
X9.4734Y-3.1978
X9.475Y-3.175
X9.6Y-4.025
X9.6516Y-3.9675
X9.6609Y-1.6978
X9.6609Y-4.6978
X9.6625Y-1.675
X9.6625Y-4.675
X9.7875Y-2.525
X9.7875Y-4.775
X9.8391Y-2.4675
X9.8391Y-4.7175
X9.8484Y-3.9478
X9.85Y-3.925
X9.8812Y-4.025
X9.8812Y-4.775
X9.9328Y-3.9675
X9.9328Y-4.7175
X9.975Y-3.275
X10.0266Y-3.2175
X10.0359Y-2.4478
X10.0359Y-4.6978
X10.0375Y-2.425
X10.0375Y-4.675
X10.1297Y-3.9478
X10.1297Y-4.6978
X10.1312Y-3.925
X10.1312Y-4.675
X10.1625Y-1.775
X10.1625Y-4.025
X10.1625Y-4.775
X10.2141Y-1.7175
X10.2141Y-3.9675
X10.2141Y-4.7175
X10.2234Y-3.1978
X10.225Y-3.175
X10.2562Y-4.025
X10.3078Y-3.9675
X10.4109Y-1.6978
X10.4109Y-3.9478
X10.4109Y-4.6978
X10.4125Y-1.675
X10.4125Y-3.925
X10.4125Y-4.675
X10.4437Y-3.275
X10.4953Y-3.2175
X10.5047Y-3.9478
X10.5062Y-3.925
X10.5375Y-1.775
X10.5891Y-1.7175
X10.6312Y-4.025
X10.6828Y-3.9675
X10.6922Y-3.1978
X10.6937Y-3.175
X10.725Y-2.525
X10.725Y-4.775
X10.7766Y-2.4675
X10.7766Y-4.7175
X10.7859Y-1.6978
X10.7875Y-1.675
X10.8187Y-4.775
X10.8703Y-3.1772
X10.8703Y-4.7175
X10.8797Y-3.9478
X10.8812Y-3.925
X10.9125Y-1.775
X10.9125Y-4.025
X10.9125Y-4.025
X10.9625Y-5.075
X10.9641Y-1.7175
X10.9641Y-3.9675
X10.9641Y-3.9675
X10.9641Y-5.0522
X10.9734Y-2.4478
X10.9734Y-4.6978
X10.975Y-2.425
X10.975Y-4.675
X11.0672Y-3.1575
X11.0672Y-4.6978
X11.0687Y-2.85
X11.0687Y-4.675
X11.1262Y-2.9016
X11.1459Y-3.0984
X11.1609Y-1.6978
X11.1609Y-3.9478
X11.1609Y-3.9478
X11.1609Y-5.0325
X11.1625Y-1.675
X11.1625Y-3.925
X11.1625Y-3.925
X11.1687Y-3.1
X11.2125Y-4.975
T5
X8.3937Y-2.2146
X9.2441Y-2.2146
T7
X1.1944Y-2.6112
T2
X0.7913Y-1.626G85X0.7913Y-1.7244
G05
X1.0787Y-1.626G85X1.0787Y-1.7244
G05
T6
X5.2003Y-3.3632G85X5.2988Y-3.3632
G05
X7.653Y-4.8671G85X7.7515Y-4.8671
G05
X10.3912Y-2.6112G85X10.4897Y-2.6112
G05
T0
M30
